<?xml version="1.0" standalone="no"?>
<!DOCTYPE svg PUBLIC "-//W3C//DTD SVG 20010904//EN"
 "http://www.w3.org/TR/2001/REC-SVG-20010904/DTD/svg10.dtd">
<svg version="1.0" xmlns="http://www.w3.org/2000/svg"
 width="65.000000pt" height="64.000000pt" viewBox="0 0 65.000000 64.000000"
 preserveAspectRatio="xMidYMid meet">

<g transform="translate(0.000000,64.000000) scale(0.100000,-0.100000)"
fill="#000000" stroke="none">
<path d="M1 488 c1 -113 3 -142 10 -110 24 123 128 227 252 252 30 5 -1 8
-110 9 l-153 1 1 -152z"/>
<path d="M387 630 c89 -18 168 -75 213 -154 41 -71 37 -77 -15 -26 -40 39 -45
42 -45 22 0 -12 8 -27 18 -33 13 -8 17 -20 14 -36 -3 -15 1 -29 8 -33 11 -7
11 -11 1 -24 -7 -9 -11 -24 -9 -34 3 -12 -2 -23 -13 -31 -11 -6 -19 -20 -19
-31 0 -11 -6 -20 -14 -20 -8 0 -17 -11 -20 -25 -13 -50 -38 -56 -225 -53
l-171 3 77 -77 78 -78 192 0 193 0 0 320 0 320 -152 -1 c-110 -1 -141 -4 -111
-9z"/>
<path d="M490 507 c0 -8 7 -17 15 -21 8 -3 15 -2 15 3 0 5 -7 14 -15 21 -12
10 -15 10 -15 -3z"/>
<path d="M1 148 l-1 -148 122 0 121 0 -61 30 c-90 46 -152 126 -172 223 -6 30
-8 1 -9 -105z"/>
</g>
</svg>
